HIERARCHY
ROOT Hips
{
  OFFSET 0.770019 87.5769 1.10208
  CHANNELS 6 Xposition Yposition Zposition Zrotation Xrotation Yrotation
  JOINT Spine
  {
    OFFSET 0 9.9235 -1.2273
    CHANNELS 6 Xposition Yposition Zposition Zrotation Xrotation Yrotation
    JOINT Spine1
    {
      OFFSET -0.0001 11.6454 -1.4223
      CHANNELS 6 Xposition Yposition Zposition Zrotation Xrotation Yrotation
      JOINT Spine2
      {
        OFFSET 0.0001 13.3602 -1.6265
        CHANNELS 6 Xposition Yposition Zposition Zrotation Xrotation Yrotation
        JOINT Neck
        {
          OFFSET 0 15.0325 0.7929
          CHANNELS 6 Xposition Yposition Zposition Zrotation Xrotation Yrotation
          JOINT Head
          {
            OFFSET 0 10.3218 3.1424
            CHANNELS 6 Xposition Yposition Zposition Zrotation Xrotation Yrotation
            JOINT HeadTop_End
            {
              OFFSET 0.0002 18.4747 6.6364
              CHANNELS 6 Xposition Yposition Zposition Zrotation Xrotation Yrotation
              End Site
              {
                OFFSET 0 0 0
              }
            }
            JOINT LeftEye
            {
              OFFSET 2.9479 7.6817 9.1207
              CHANNELS 6 Xposition Yposition Zposition Zrotation Xrotation Yrotation
              End Site
              {
                OFFSET 0 0 0
              }
            }
            JOINT RightEye
            {
              OFFSET -2.9445 7.6817 9.1205
              CHANNELS 6 Xposition Yposition Zposition Zrotation Xrotation Yrotation
              End Site
              {
                OFFSET 0 0 0
              }
            }
          }
        }
        JOINT LeftShoulder
        {
          OFFSET 6.1058 9.1104 0.7056
          CHANNELS 6 Xposition Yposition Zposition Zrotation Xrotation Yrotation
          JOINT LeftArm
          {
            OFFSET 12.655 -0.2659 -2.6009
            CHANNELS 6 Xposition Yposition Zposition Zrotation Xrotation Yrotation
            JOINT LeftForeArm
            {
              OFFSET 27.4047 0 0
              CHANNELS 6 Xposition Yposition Zposition Zrotation Xrotation Yrotation
              JOINT LeftHand
              {
                OFFSET 27.6145 0 0
                CHANNELS 6 Xposition Yposition Zposition Zrotation Xrotation Yrotation
                JOINT LeftHandMiddle1
                {
                  OFFSET 12.7755 0 0
                  CHANNELS 6 Xposition Yposition Zposition Zrotation Xrotation Yrotation
                  JOINT LeftHandMiddle2
                  {
                    OFFSET 3.614 0 0
                    CHANNELS 6 Xposition Yposition Zposition Zrotation Xrotation Yrotation
                    JOINT LeftHandMiddle3
                    {
                      OFFSET 3.4598 0 0
                      CHANNELS 6 Xposition Yposition Zposition Zrotation Xrotation Yrotation
                      End Site
                      {
                        OFFSET 3.6802 0 0
                      }
                    }
                  }
                }
                JOINT LeftHandThumb1
                {
                  OFFSET 3.7888 -2.167 3.0031
                  CHANNELS 6 Xposition Yposition Zposition Zrotation Xrotation Yrotation
                  JOINT LeftHandThumb2
                  {
                    OFFSET 3.6754 -2.122 2.122
                    CHANNELS 6 Xposition Yposition Zposition Zrotation Xrotation Yrotation
                    JOINT LeftHandThumb3
                    {
                      OFFSET 3.3944 -1.9597 1.9598
                      CHANNELS 6 Xposition Yposition Zposition Zrotation Xrotation Yrotation
                      End Site
                      {
                        OFFSET 2.6794 -1.5469 1.5469
                      }
                    }
                  }
                }
                JOINT LeftHandIndex1
                {
                  OFFSET 12.2666 -0.2317 2.8221
                  CHANNELS 6 Xposition Yposition Zposition Zrotation Xrotation Yrotation
                  JOINT LeftHandIndex2
                  {
                    OFFSET 3.892 0 0
                    CHANNELS 6 Xposition Yposition Zposition Zrotation Xrotation Yrotation
                    JOINT LeftHandIndex3
                    {
                      OFFSET 3.4152 0 0
                      CHANNELS 6 Xposition Yposition Zposition Zrotation Xrotation Yrotation
                      End Site
                      {
                        OFFSET 3.078 0 0
                      }
                    }
                  }
                }
                JOINT LeftHandRing1
                {
                  OFFSET 12.147 0.0099 -2.2166
                  CHANNELS 6 Xposition Yposition Zposition Zrotation Xrotation Yrotation
                  JOINT LeftHandRing2
                  {
                    OFFSET 3.6012 0 0
                    CHANNELS 6 Xposition Yposition Zposition Zrotation Xrotation Yrotation
                    JOINT LeftHandRing3
                    {
                      OFFSET 3.3073 0 0
                      CHANNELS 6 Xposition Yposition Zposition Zrotation Xrotation Yrotation
                      End Site
                      {
                        OFFSET 3.6601 0 0
                      }
                    }
                  }
                }
                JOINT LeftHandPinky1
                {
                  OFFSET 10.9082 -0.2264 -4.7258
                  CHANNELS 6 Xposition Yposition Zposition Zrotation Xrotation Yrotation
                  JOINT LeftHandPinky2
                  {
                    OFFSET 4.1367 0 0
                    CHANNELS 6 Xposition Yposition Zposition Zrotation Xrotation Yrotation
                    JOINT LeftHandPinky3
                    {
                      OFFSET 2.5948 0 0
                      CHANNELS 6 Xposition Yposition Zposition Zrotation Xrotation Yrotation
                      End Site
                      {
                        OFFSET 2.9239 0 0
                      }
                    }
                  }
                }
              }
            }
          }
        }
        JOINT RightShoulder
        {
          OFFSET -6.1057 9.1105 0.7056
          CHANNELS 6 Xposition Yposition Zposition Zrotation Xrotation Yrotation
          JOINT RightArm
          {
            OFFSET -12.655 -0.266 -2.6009
            CHANNELS 6 Xposition Yposition Zposition Zrotation Xrotation Yrotation
            JOINT RightForeArm
            {
              OFFSET -27.4047 0 0
              CHANNELS 6 Xposition Yposition Zposition Zrotation Xrotation Yrotation
              JOINT RightHand
              {
                OFFSET -27.6145 0 0
                CHANNELS 6 Xposition Yposition Zposition Zrotation Xrotation Yrotation
                JOINT RightHandMiddle1
                {
                  OFFSET -12.7755 0 0
                  CHANNELS 6 Xposition Yposition Zposition Zrotation Xrotation Yrotation
                  JOINT RightHandMiddle2
                  {
                    OFFSET -3.614 0 0
                    CHANNELS 6 Xposition Yposition Zposition Zrotation Xrotation Yrotation
                    JOINT RightHandMiddle3
                    {
                      OFFSET -3.4598 0 0
                      CHANNELS 6 Xposition Yposition Zposition Zrotation Xrotation Yrotation
                      End Site
                      {
                        OFFSET -3.6802 0 0
                      }
                    }
                  }
                }
                JOINT RightHandThumb1
                {
                  OFFSET -3.7888 -2.167 3.0031
                  CHANNELS 6 Xposition Yposition Zposition Zrotation Xrotation Yrotation
                  JOINT RightHandThumb2
                  {
                    OFFSET -3.6754 -2.122 2.122
                    CHANNELS 6 Xposition Yposition Zposition Zrotation Xrotation Yrotation
                    JOINT RightHandThumb3
                    {
                      OFFSET -3.3944 -1.9597 1.9598
                      CHANNELS 6 Xposition Yposition Zposition Zrotation Xrotation Yrotation
                      End Site
                      {
                        OFFSET -2.6794 -1.5469 1.5469
                      }
                    }
                  }
                }
                JOINT RightHandIndex1
                {
                  OFFSET -12.2666 -0.2317 2.8221
                  CHANNELS 6 Xposition Yposition Zposition Zrotation Xrotation Yrotation
                  JOINT RightHandIndex2
                  {
                    OFFSET -3.892 0 0
                    CHANNELS 6 Xposition Yposition Zposition Zrotation Xrotation Yrotation
                    JOINT RightHandIndex3
                    {
                      OFFSET -3.4152 0 0
                      CHANNELS 6 Xposition Yposition Zposition Zrotation Xrotation Yrotation
                      End Site
                      {
                        OFFSET -3.078 0 0
                      }
                    }
                  }
                }
                JOINT RightHandRing1
                {
                  OFFSET -12.147 0.0099 -2.2166
                  CHANNELS 6 Xposition Yposition Zposition Zrotation Xrotation Yrotation
                  JOINT RightHandRing2
                  {
                    OFFSET -3.6012 0 0
                    CHANNELS 6 Xposition Yposition Zposition Zrotation Xrotation Yrotation
                    JOINT RightHandRing3
                    {
                      OFFSET -3.3073 0 0
                      CHANNELS 6 Xposition Yposition Zposition Zrotation Xrotation Yrotation
                      End Site
                      {
                        OFFSET -3.6601 0 0
                      }
                    }
                  }
                }
                JOINT RightHandPinky1
                {
                  OFFSET -10.9082 -0.2264 -4.7258
                  CHANNELS 6 Xposition Yposition Zposition Zrotation Xrotation Yrotation
                  JOINT RightHandPinky2
                  {
                    OFFSET -4.1367 0 0
                    CHANNELS 6 Xposition Yposition Zposition Zrotation Xrotation Yrotation
                    JOINT RightHandPinky3
                    {
                      OFFSET -2.5948 0 0
                      CHANNELS 6 Xposition Yposition Zposition Zrotation Xrotation Yrotation
                      End Site
                      {
                        OFFSET -2.9239 0 0
                      }
                    }
                  }
                }
              }
            }
          }
        }
      }
    }
  }
  JOINT RightUpLeg
  {
    OFFSET -9.1245 -6.6564 -0.0554
    CHANNELS 6 Xposition Yposition Zposition Zrotation Xrotation Yrotation
    JOINT RightLeg
    {
      OFFSET -0.2447 -40.5954 -0.5145
      CHANNELS 6 Xposition Yposition Zposition Zrotation Xrotation Yrotation
      JOINT RightFoot
      {
        OFFSET 0.2447 -42.0479 -2.0602
        CHANNELS 6 Xposition Yposition Zposition Zrotation Xrotation Yrotation
        JOINT RightToeBase
        {
          OFFSET -0.3734 -10.4922 12.6407
          CHANNELS 6 Xposition Yposition Zposition Zrotation Xrotation Yrotation
          End Site
          {
            OFFSET 0 0 9.9925
          }
        }
      }
    }
  }
  JOINT LeftUpLeg
  {
    OFFSET 9.1245 -6.6564 -0.0554
    CHANNELS 6 Xposition Yposition Zposition Zrotation Xrotation Yrotation
    JOINT LeftLeg
    {
      OFFSET 0.2447 -40.5954 -0.517
      CHANNELS 6 Xposition Yposition Zposition Zrotation Xrotation Yrotation
      JOINT LeftFoot
      {
        OFFSET -0.2447 -42.048 -2.0576
        CHANNELS 6 Xposition Yposition Zposition Zrotation Xrotation Yrotation
        JOINT LeftToeBase
        {
          OFFSET 0.3734 -10.4922 12.6407
          CHANNELS 6 Xposition Yposition Zposition Zrotation Xrotation Yrotation
          End Site
          {
            OFFSET 0 0 9.9925
          }
        }
      }
    }
  }
}
MOTION
Frames:	4
Frame Time:	0.0166667
0.770019 87.5769 1.10208 -17.4018 11.6636 16.7329 0 9.9235 -1.2273 -8.63835 12.1589 1.49798 -0.0001 11.6454 -1.4223 -3.54462 8.84655 2.18873 0.0001 13.3602 -1.6265 -3.55885 8.81517 2.30505 0 15.0325 0.7929 -2.85247 -0.856653 12.3645 0 10.3218 3.1424 -4.32391 -24.2933 62.0543 0.0002 18.4747 6.6364 1.10348e-032 3.97569e-016 -1.59028e-015 2.9479 7.6817 9.1207 1.10348e-032 3.97569e-016 -1.59028e-015 -2.9445 7.6817 9.1205 1.10348e-032 3.97569e-016 -1.59028e-015 6.1058 9.1104 0.7056 -15.9256 3.30807 -10.9927 12.655 -0.2659 -2.6009 -46.9488 0.282543 1.25366 27.4047 -1.77636e-015 0 1.58252e-005 -4.64076e-006 -62.2227 27.6145 3.55271e-015 -3.55271e-015 23.1268 16.3773 -30.3819 12.7755 7.10543e-015 -7.10543e-015 -7.92308 -0.318356 3.15647 3.614 0 0 -25.5857 -0.575744 2.53519 3.4598 0 7.10543e-015 -10.304 -0.0946374 1.04975 3.7888 -2.167 3.0031 -13.3743 -4.58058 12.4675 3.6754 -2.122 2.122 40.518 17.294 -1.56757 3.3944 -1.9597 1.9598 15.5559 11.0065 16.7778 12.2666 -0.2317 2.8221 10.2513 0.38941 1.26632 3.892 0 0 -28.861 -0.729346 2.8338 3.4152 3.55271e-015 0 -5.13219 -0.0235324 0.524961 12.147 0.0099 -2.2166 -21.1851 -1.19197 4.34821 3.6012 0 7.10543e-015 -22.6658 -0.453407 2.26203 3.3073 -2.66454e-015 0 -20.883 -0.385636 2.09235 10.9082 -0.2264 -4.7258 -27.9511 -1.73795 4.87088 4.1367 3.55271e-015 0 -24.1502 -0.513833 2.40167 2.5948 2.66454e-015 0 -32.4172 -0.915189 3.14757 -6.1057 9.1105 0.7056 3.38379 1.83577 12.454 -12.655 -0.266 -2.6009 45.1005 -7.88167 21.3211 -27.4047 0 1.42109e-014 -1.64886e-005 -1.24323e-006 46.7615 -27.6145 -1.42109e-014 -3.55271e-015 1.23178 -26.3579 15.9888 -12.7755 0 0 28.7863 -1.63582 -4.27273 -3.614 0 -1.42109e-014 45.3752 -1.38896 -3.32164 -3.4598 0 0 26.3835 -0.48601 -2.07323 -3.7888 -2.167 3.0031 13.5066 -5.15126 -11.2393 -3.6754 -2.122 2.122 -40.5027 18.3999 4.9282 -3.3944 -1.9597 1.9598 -10.2365 12.8552 -27.8001 -12.2666 -0.2317 2.8221 12.7946 -0.574944 -3.27017 -3.892 0 0 29.3931 -0.60068 -2.28993 -3.4152 0 0 1.67142 -0.00198107 -0.136037 -12.147 0.0099 -2.2166 40.2569 -2.54755 -4.79196 -3.6012 0 -7.10543e-015 35.1061 -0.848964 -2.68347 -3.3073 0 0 34.7492 -0.832322 -2.65962 -10.9082 -0.2264 -4.7258 47.1234 -3.13645 -5.01213 -4.1367 0 -7.10543e-015 37.7809 -0.978445 -2.85887 -2.5948 7.10543e-015 -3.55271e-015 46.0331 -1.42733 -3.35913 -9.1245 -6.6564 -0.0554 -30.5368 -44.4444 -33.9036 -0.2447 -40.5954 -0.5145 14.6128 50.738 -21.5029 0.2447 -42.0479 -2.0602 15.021 10.7291 -16.6974 -0.3734 -10.4922 12.6407 5.78898 -3.6779 0.0341234 9.1245 -6.6564 -0.0554 -7.88027 -59.2292 -14.1736 0.2447 -40.5954 -0.517 19.5654 59.0635 -16.1212 -0.2447 -42.048 -2.0576 1.71579 -17.5011 8.71436 0.3734 -10.4922 12.6407 -3.63009e-007 -1.01218 9.559e-006 
2.12792 88.4997 -0.251943 -17.0545 10.9111 15.8061 -3.55271e-015 9.9235 -1.2273 -7.61448 11.6015 2.04212 -0.0001 11.6454 -1.4223 -2.99329 8.58361 2.46272 0.0001 13.3602 -1.6265 -2.99821 8.55277 2.57088 -7.10543e-015 15.0325 0.7929 -2.92063 -0.252548 12.3015 3.55271e-015 10.3218 3.1424 -5.08943 -23.4696 61.8837 0.0002 18.4747 6.6364 -1.59028e-015 -1.98785e-015 -1.59028e-015 2.9479 7.6817 9.1207 -1.59028e-015 -1.98785e-015 -1.59028e-015 -2.9445 7.6817 9.1205 -1.59028e-015 -1.98785e-015 -1.59028e-015 6.1058 9.1104 0.7056 -14.493 2.98564 -10.0367 12.655 -0.2659 -2.6009 -46.416 3.98734 2.83567 27.4047 -3.55271e-015 0 -7.16594e-005 2.02529e-006 -64.928 27.6145 0 -3.55271e-015 23.1449 17.6372 -30.084 12.7755 -7.10543e-015 7.10543e-015 -8.33995 -0.341488 3.19683 3.614 7.10543e-015 0 -26.0028 -0.594348 2.57369 3.4598 -3.55271e-015 0 -10.7214 -0.102456 1.09181 3.7888 -2.167 3.0031 -13.3742 -4.58059 12.4675 3.6754 -2.122 2.122 40.5179 17.294 -1.56757 3.3944 -1.9597 1.9598 15.5559 11.0066 16.7778 12.2666 -0.2317 2.8221 9.83392 0.380024 1.3119 3.892 0 -7.10543e-015 -29.278 -0.75012 2.87118 3.4152 0 -7.10543e-015 -5.54966 -0.0275281 0.567559 12.147 0.0099 -2.2166 -21.6015 -1.22376 4.38222 3.6012 0 0 -23.0829 -0.470021 2.30145 3.3073 0 0 -21.3003 -0.401009 2.13224 10.9082 -0.2264 -4.7258 -28.3673 -1.77351 4.90091 4.1367 3.55271e-015 -3.55271e-015 -24.5673 -0.531484 2.44063 2.5948 0 0 -32.8341 -0.938225 3.18356 -6.1057 9.1105 0.7056 1.54099 1.38042 13.6688 -12.655 -0.266 -2.6009 42.6443 -7.25062 22.3186 -27.4047 0 1.42109e-014 -8.95806e-006 -2.92025e-006 48.7514 -27.6145 0 0 2.95118 -25.5684 16.4555 -12.7755 0 -7.10543e-015 28.9644 -1.64917 -4.28217 -3.614 0 -7.10543e-015 45.5534 -1.39931 -3.33186 -3.4598 0 -1.42109e-014 26.5619 -0.492481 -2.08624 -3.7888 -2.167 3.0031 13.5066 -5.15126 -11.2393 -3.6754 -2.122 2.122 -40.5028 18.3999 4.9282 -3.3944 -1.9597 1.9598 -10.2365 12.8552 -27.8001 -12.2666 -0.2317 2.8221 13.1442 -0.595005 -3.29512 -3.892 0 0 29.5714 -0.607843 -2.30259 -3.4152 0 0 1.84985 -0.00241768 -0.150541 -12.147 0.0099 -2.2166 40.4349 -2.56248 -4.79856 -3.6012 0 0 35.2843 -0.857303 -2.69534 -3.3073 -7.10543e-015 1.42109e-014 34.9275 -0.840636 -2.67157 -10.9082 -0.2264 -4.7258 47.3015 -3.15205 -5.01691 -4.1367 0 7.10543e-015 37.9592 -0.987375 -2.87031 -2.5948 0 0 46.2113 -1.43782 -3.3692 -9.1245 -6.6564 -0.0554 -28.4371 -43.2364 -33.3088 -0.2447 -40.5954 -0.5145 16.8066 53.5703 -23.81 0.2447 -42.0479 -2.0602 14.2272 10.4318 -14.5304 -0.3734 -10.4922 12.6407 5.87366 -6.84553 0.0706263 9.1245 -6.6564 -0.0554 -7.53539 -57.2445 -12.4857 0.2447 -40.5954 -0.517 17.9302 55.9695 -14.4323 -0.2447 -42.048 -2.0576 2.7186 -15.4787 8.62703 0.3734 -10.4922 12.6407 3.60105e-006 -0.491517 -6.88275e-006 
3.62071 89.6043 -1.6119 -16.6475 10.3731 14.6195 0 9.9235 -1.2273 -6.63893 10.919 2.75745 -0.0001 11.6454 -1.4223 -2.48112 8.13148 2.89205 0.0001 13.3602 -1.6265 -2.4755 8.10326 2.97837 0 15.0325 0.7929 -3.23237 0.35002 12.0658 -7.10543e-015 10.3218 3.1424 -6.26987 -22.5858 61.4667 0.0002 18.4747 6.6364 -1.59028e-015 -7.95139e-016 -0 2.9479 7.6817 9.1207 -1.59028e-015 -7.95139e-016 -0 -2.9445 7.6817 9.1205 -1.59028e-015 -7.95139e-016 -0 6.1058 9.1104 0.7056 -12.7943 2.59327 -8.66754 12.655 -0.2659 -2.6009 -45.562 7.41389 4.55881 27.4047 7.10543e-015 1.42109e-014 -3.83447e-006 -1.22334e-007 -71.577 27.6145 0 3.55271e-015 23.0197 18.9051 -29.7288 12.7755 7.10543e-015 0 -9.48285 -0.406415 3.30661 3.614 0 0 -27.1464 -0.646792 2.67855 3.4598 3.55271e-015 -7.10543e-015 -11.8659 -0.125403 1.20677 3.7888 -2.167 3.0031 -13.3742 -4.58058 12.4675 3.6754 -2.122 2.122 40.5179 17.294 -1.56758 3.3944 -1.9597 1.9598 15.5559 11.0066 16.7778 12.2666 -0.2317 2.8221 8.68947 0.35255 1.43645 3.892 0 -7.10543e-015 -30.4214 -0.80846 2.97287 3.4152 0 -7.10543e-015 -6.69432 -0.0400099 0.68412 12.147 0.0099 -2.2166 -22.7431 -1.31213 4.4742 3.6012 0 0 -24.2267 -0.51707 2.40882 3.3073 -1.77636e-015 3.55271e-015 -22.4442 -0.444696 2.24106 10.9082 -0.2264 -4.7258 -29.5083 -1.87212 4.98187 4.1367 7.10543e-015 -3.55271e-015 -25.711 -0.581272 2.54676 2.5948 -2.66454e-015 -1.06581e-014 -33.9771 -1.00278 3.28146 -6.1057 9.1105 0.7056 -1.02281 0.884705 14.7003 -12.655 -0.266 -2.6009 39.4116 -6.84002 23.4416 -27.4047 0 7.10543e-015 -1.13113e-005 1.31743e-005 50.794 -27.6145 1.42109e-014 1.33227e-015 5.05565 -24.7916 16.9442 -12.7755 0 0 29.4694 -1.68706 -4.30866 -3.614 0 0 46.0589 -1.42883 -3.36058 -3.4598 0 -7.10543e-015 27.0677 -0.511074 -2.12303 -3.7888 -2.167 3.0031 13.5066 -5.15126 -11.2393 -3.6754 -2.122 2.122 -40.5027 18.3999 4.92821 -3.3944 -1.9597 1.9598 -10.2365 12.8552 -27.8001 -12.2666 -0.2317 2.8221 14.1357 -0.652664 -3.36515 -3.892 0 7.10543e-015 30.0772 -0.628345 -2.33832 -3.4152 0 0 2.35606 -0.00394124 -0.191758 -12.147 0.0099 -2.2166 40.9399 -2.60489 -4.81699 -3.6012 -7.10543e-015 -7.10543e-015 35.79 -0.881294 -2.72889 -3.3073 0 0 35.4332 -0.864369 -2.70523 -10.9082 -0.2264 -4.7258 47.8065 -3.19637 -5.03012 -4.1367 0 7.10543e-015 38.4648 -1.01287 -2.90269 -2.5948 7.10543e-015 0 46.7168 -1.46769 -3.39759 -9.1245 -6.6564 -0.0554 -25.5427 -41.8751 -32.51 -0.2447 -40.5954 -0.5145 17.8392 55.9876 -25.1565 0.2447 -42.0479 -2.0602 15.0599 9.86503 -13.1293 -0.3734 -10.4922 12.6407 4.62564 -9.68517 0.0148948 9.1245 -6.6564 -0.0554 -7.17449 -55.0109 -10.6973 0.2447 -40.5954 -0.517 16.3422 52.0982 -12.793 -0.2447 -42.048 -2.0576 3.2222 -13.1081 8.5077 0.3734 -10.4922 12.6407 -3.93777e-007 0.0845163 2.31794e-006 
5.13207 90.7944 -2.97834 -16.173 10.0026 13.4004 -1.77636e-015 9.9235 -1.2273 -5.83776 10.169 3.73533 -0.0001 11.6454 -1.4223 -2.11246 7.6054 3.52534 0.0001 13.3602 -1.6265 -2.09632 7.58228 3.58971 -3.55271e-015 15.0325 0.7929 -3.72103 1.0301 11.8601 -1.77636e-015 10.3218 3.1424 -7.72308 -21.6088 60.8239 0.0002 18.4747 6.6364 1.59028e-015 1.59028e-015 -1.59028e-015 2.9479 7.6817 9.1207 1.59028e-015 1.59028e-015 -1.59028e-015 -2.9445 7.6817 9.1205 1.59028e-015 1.59028e-015 -1.59028e-015 6.1058 9.1104 0.7056 -11.338 2.22499 -7.01782 12.655 -0.2659 -2.6009 -44.4526 10.6832 6.46232 27.4047 0 0 -9.1866e-006 6.7676e-007 -78.9059 27.6145 3.55271e-015 0 22.7269 20.0559 -29.4308 12.7755 0 0 -11.1903 -0.507474 3.4682 3.614 -7.10543e-015 -1.42109e-014 -28.8549 -0.729037 2.83325 3.4598 0 0 -13.5759 -0.163975 1.37766 3.7888 -2.167 3.0031 -13.3742 -4.58056 12.4675 3.6754 -2.122 2.122 40.5179 17.294 -1.56759 3.3944 -1.9597 1.9598 15.5559 11.0065 16.7778 12.2666 -0.2317 2.8221 6.9797 0.306924 1.62149 3.892 0 7.10543e-015 -32.1295 -0.899411 3.1226 3.4152 -7.10543e-015 0 -8.40455 -0.0630252 0.857762 12.147 0.0099 -2.2166 -24.4485 -1.44755 4.60833 3.6012 7.10543e-015 0 -25.9356 -0.591347 2.5675 3.3073 3.55271e-015 3.55271e-015 -24.1532 -0.513999 2.40196 10.9082 -0.2264 -4.7258 -31.2131 -2.02239 5.09911 4.1367 0 0 -27.4197 -0.659655 2.70346 2.5948 -1.77636e-015 0 -35.6849 -1.10283 3.42528 -6.1057 9.1105 0.7056 -3.8184 0.461642 15.4311 -12.655 -0.266 -2.6009 36.2678 -6.99617 24.5715 -27.4047 0 0 1.96718e-005 -2.16313e-005 52.6574 -27.6145 1.42109e-014 1.33227e-015 7.55441 -23.8926 17.4543 -12.7755 1.42109e-014 1.42109e-014 30.2577 -1.74671 -4.34939 -3.614 0 -7.10543e-015 46.848 -1.4755 -3.40488 -3.4598 0 0 27.8575 -0.54075 -2.18014 -3.7888 -2.167 3.0031 13.5066 -5.15127 -11.2393 -3.6754 -2.122 2.122 -40.5027 18.3999 4.9282 -3.3944 -1.9597 1.9598 -10.2365 12.8552 -27.8001 -12.2666 -0.2317 2.8221 15.6835 -0.745161 -3.47254 -3.892 0 0 30.8668 -0.660918 -2.39379 -3.4152 0 0 3.14631 -0.00704347 -0.256011 -12.147 0.0099 -2.2166 41.7281 -2.67145 -4.84507 -3.6012 0 -7.10543e-015 36.5795 -0.919268 -2.78081 -3.3073 -7.10543e-015 0 36.2227 -0.902017 -2.75741 -10.9082 -0.2264 -4.7258 48.5949 -3.26581 -5.05006 -4.1367 7.10543e-015 -7.10543e-015 39.2542 -1.0532 -2.95279 -2.5948 0 0 47.5059 -1.51483 -3.44138 -9.1245 -6.6564 -0.0554 -22.7644 -40.4083 -31.6965 -0.2447 -40.5954 -0.5145 18.6529 57.6742 -26.208 0.2447 -42.0479 -2.0602 15.887 10.0472 -13.0968 -0.3734 -10.4922 12.6407 3.98508 -11.7242 -0.0108226 9.1245 -6.6564 -0.0554 -6.93616 -52.5508 -8.84257 0.2447 -40.5954 -0.517 14.9158 47.4633 -11.3105 -0.2447 -42.048 -2.0576 3.72838 -10.5356 8.37429 0.3734 -10.4922 12.6407 2.95088e-006 0.549108 -5.91278e-006 
